<svg width="65" height="64" viewBox="0 0 65 64" fill="none" xmlns="http://www.w3.org/2000/svg">
<g clip-path="url(#clip0_25_23732)">
<rect x="0.380371" width="64" height="64" rx="32" fill="#E0E0E0"/>
<g clip-path="url(#clip1_25_23732)">
<rect width="64" height="64" transform="translate(0.380371)" fill="#E0F4FE"/>
<path d="M34.6725 55.0057C33.7333 55.927 32.5352 56.8424 31.0163 57.6185C29.8018 58.2399 28.3826 58.7728 26.7253 59.1486C28.7599 64.5946 31.0691 68.2217 31.0691 68.2217C31.0691 68.2217 36.1921 61.0708 37.8196 50.1194C37.6678 50.6128 36.8931 52.826 34.6717 55.0057H34.6725ZM29.7556 61.4459C29.3649 61.4459 29.0479 61.1289 29.0479 60.7382C29.0479 60.3475 29.3649 60.0305 29.7556 60.0305C30.1463 60.0305 30.4634 60.3475 30.4634 60.7382C30.4634 61.1289 30.1463 61.4459 29.7556 61.4459Z" fill="#FFBF44"/>
<path d="M42.977 22.1938C42.8951 21.6498 42.8035 21.146 42.7113 20.701C42.5855 20.0937 42.4195 19.4902 42.2089 18.9045C41.9648 18.2273 41.3769 17.7577 40.7034 17.6468C40.4638 17.6066 40.213 17.6126 39.963 17.6714C39.893 17.6877 39.8529 17.7019 39.8529 17.7019C39.7077 17.7451 39.5649 17.786 39.4235 17.8254C33.0971 19.5891 30.4769 17.7421 30.4218 17.7026L31.1206 19.6435L31.5135 20.7337C28.3753 21.3692 27.6861 25.4749 27.6861 25.4749C27.4086 24.9116 27.1109 24.343 26.878 23.9069C26.7626 23.6896 26.6086 23.4991 26.4285 23.3421C26.0884 23.0466 25.6523 22.8718 25.1894 22.8688H25.1753C23.8804 22.8688 22.7902 23.8072 22.4605 25.0842C22.3935 25.3417 22.3578 25.6141 22.3578 25.8946C22.3578 26.1588 22.389 26.4148 22.4486 26.6589C22.6123 27.3346 22.9881 27.9188 23.4957 28.3244C23.5291 28.3869 23.5619 28.4494 23.5939 28.5119C23.7442 28.5707 23.8953 28.6221 24.0426 28.666C24.6402 28.8468 25.1641 28.9138 25.2132 28.9198C25.2155 28.9205 25.217 28.9205 25.217 28.9205L25.083 32.5685L24.8456 39.0407L30.9561 43.5289L37.1165 39.0035V35.2066C37.4387 35.1977 37.7706 35.1761 38.1122 35.1404C38.5982 35.0891 39.0417 34.9841 39.4465 34.8316C43.7092 33.2368 43.6207 26.4535 42.977 22.1938Z" fill="#F9BEA5"/>
<path d="M34.1604 22.7942C34.3641 22.7793 34.5054 22.4416 34.4761 22.0399C34.4467 21.6382 34.2578 21.3246 34.054 21.3395C33.8503 21.3544 33.709 21.6921 33.7383 22.0938C33.7677 22.4955 33.9566 22.8091 34.1604 22.7942Z" fill="#231F20"/>
<path d="M40.6568 22.9551C40.8605 22.9402 41.0018 22.6025 40.9725 22.2008C40.9431 21.7991 40.7542 21.4855 40.5504 21.5004C40.3467 21.5153 40.2054 21.853 40.2347 22.2547C40.2641 22.6564 40.453 22.97 40.6568 22.9551Z" fill="#231F20"/>
<path d="M29.7557 61.446C30.1465 61.446 30.4634 61.1291 30.4634 60.7382C30.4634 60.3474 30.1465 60.0305 29.7557 60.0305C29.3648 60.0305 29.048 60.3474 29.048 60.7382C29.048 61.1291 29.3648 61.446 29.7557 61.446Z" fill="#231F20"/>
<path d="M47.8208 45.7637C47.8208 45.7637 47.3297 48.3073 45.8048 51.8095C44.9818 53.7027 43.8551 55.8765 42.3414 58.08C41.9678 58.6248 41.5704 59.1702 41.1484 59.7142C39.2947 62.1008 36.9609 64.4495 34.0378 66.4409C34.037 66.4409 34.0363 66.4424 34.0363 66.4424C33.1083 67.075 32.1207 67.6718 31.0699 68.2218C31.0699 68.2218 36.1922 61.0709 37.8205 50.1202C38.069 48.4413 38.2364 46.6746 38.2908 44.8298C38.299 44.5685 38.3042 44.3074 38.3072 44.0439C38.3146 43.4575 38.3094 42.8636 38.2923 42.2631L40.9066 42.6352L43.0432 42.9395L43.1146 42.9499L46.3585 43.4173L45.3598 44.9124L44.9445 45.5345L43.992 46.9604L47.8208 45.7637Z" fill="#135DD3"/>
<path d="M33.4841 46.3099L32.5806 47.2059C32.4831 47.3027 32.3648 47.3741 32.2375 47.4172C32.591 47.8779 34.7075 50.8174 34.6725 55.005C36.8939 52.8252 37.6679 50.6128 37.8204 50.1187C38.1836 47.6762 38.3734 45.0455 38.293 42.2615L37.9961 42.2191L34.9501 47.8787L33.4841 46.3092V46.3099Z" fill="#E2D2F9"/>
<path d="M31.9517 47.4656C32.05 47.4656 32.146 47.4485 32.2375 47.418C32.3655 47.3748 32.4831 47.3034 32.5806 47.2066L33.484 46.3106L30.956 43.6033L28.5099 46.2228L29.5019 47.2074C29.5993 47.3041 29.7177 47.3755 29.845 47.4187C29.9365 47.4492 30.0325 47.4664 30.1307 47.4664H31.951L31.9517 47.4656Z" fill="#CA6754"/>
<path d="M27.4115 55.0541C25.4015 53.1013 24.5591 51.1114 24.2897 50.3448C24.8553 53.5605 25.7595 56.5603 26.7269 59.1478C28.3842 58.772 29.8026 58.2392 31.0179 57.6178C29.5258 56.855 28.344 55.9582 27.4123 55.0533L27.4115 55.0541Z" fill="#FFBF44"/>
<path d="M34.6726 55.0057C33.7334 55.927 32.5353 56.8423 31.0164 57.6185C29.525 56.8557 28.3425 55.959 27.4116 55.0548C27.3602 50.8412 29.4916 47.8809 29.8458 47.418C29.9373 47.4485 30.0333 47.4656 30.1316 47.4656H31.9519C32.0501 47.4656 32.1461 47.4485 32.2376 47.418C32.5904 47.8786 34.7068 50.8182 34.6726 55.0057Z" fill="#CA6754"/>
<path d="M46.2558 16.977C46.1814 17.5106 46.0057 18.0211 45.7468 18.487C45.5533 18.836 45.3129 19.1605 45.0339 19.4507C44.9773 19.5095 44.9185 19.572 44.8575 19.6368C44.2324 20.3066 43.4011 21.2911 42.9769 22.1938C42.8951 21.6498 42.8035 21.146 42.7112 20.701C42.5854 20.0937 42.4195 19.4902 42.2089 18.9045C42.1828 18.8316 42.1524 18.7609 42.1181 18.6931C41.7244 17.9051 40.8381 17.4667 39.963 17.6714C39.893 17.6878 39.8528 17.7019 39.8528 17.7019C33.2154 19.6725 30.4783 17.7428 30.4218 17.7026L30.4947 17.9051L31.5135 20.7337C28.5747 21.3291 27.7836 24.9674 27.6943 25.4273C27.6891 25.4585 27.6861 25.4749 27.6861 25.4749C27.4085 24.9116 27.1109 24.343 26.8779 23.9069C26.5445 23.2818 25.8986 22.8732 25.1894 22.8688H25.1752C23.6191 22.8688 22.3577 24.2239 22.3577 25.8946C22.3577 26.1588 22.389 26.4148 22.4485 26.6589C22.3391 26.5078 22.2283 26.3568 22.1174 26.2057C20.3298 23.7744 18.4604 21.4169 18.4887 18.2206C18.5014 16.8535 19.0104 15.8087 19.8253 15.0131C20.818 14.0427 22.2655 13.4414 23.8216 13.0723C23.8216 13.0723 23.8052 12.8602 23.8349 12.5194C23.8349 12.5186 23.8357 12.5171 23.8357 12.5164C23.8655 12.1763 23.9406 11.709 24.1229 11.1985C24.1267 11.1865 24.1311 11.1739 24.1356 11.1612C24.1453 11.1359 24.1542 11.1106 24.1639 11.0853C24.1803 11.0437 24.1966 11.002 24.2145 10.9603C24.2294 10.9246 24.2443 10.8889 24.2606 10.8532C24.6684 9.92739 25.4498 8.92348 26.9367 8.29762C27.0238 8.26115 27.1124 8.22544 27.2017 8.19269C32.3492 6.28758 35.3706 9.94004 35.3706 9.94004C35.3803 9.9393 35.3899 9.9378 35.4003 9.93706C35.4056 9.93632 35.4122 9.93557 35.4197 9.93482H35.4227C35.8364 9.89762 38.6495 9.71083 40.7741 11.2066C40.8597 11.2669 40.9438 11.3294 41.0264 11.3949C41.653 11.8906 42.2045 12.5477 42.5952 13.4184C42.5952 13.4184 43.0022 13.434 43.5462 13.5605C43.643 13.5821 43.7434 13.6081 43.8476 13.6379L43.8513 13.6394C43.922 13.6602 43.9949 13.6825 44.0679 13.7071C45.2035 14.0874 46.5356 14.964 46.2558 16.977Z" fill="#700517"/>
<path d="M31.0699 68.2218C30.9374 68.1526 30.8064 68.0826 30.6762 68.0112C30.5132 67.9233 30.3517 67.8341 30.1917 67.7425C29.9543 67.6086 29.7199 67.4716 29.4885 67.3317C29.3143 67.2268 29.1424 67.1204 28.972 67.0132C28.5657 66.7565 28.1705 66.4938 27.785 66.2236C27.6942 66.1604 27.6042 66.0964 27.5141 66.0324C27.4501 65.9855 27.3862 65.9401 27.3229 65.8932C27.2061 65.8084 27.0907 65.7228 26.9754 65.6365C26.8898 65.5725 26.8049 65.5077 26.7201 65.443C26.6382 65.3805 26.5564 65.3172 26.4753 65.2532C26.4686 65.248 26.4619 65.2428 26.4552 65.2376C26.3807 65.1795 26.3071 65.1207 26.2334 65.0612C26.2207 65.0515 26.2073 65.0411 26.1947 65.0307C26.1151 64.9667 26.0355 64.9027 25.9566 64.8379C25.8732 64.7702 25.7906 64.7018 25.7088 64.6326C25.6537 64.5872 25.5994 64.541 25.545 64.4942C25.4818 64.4421 25.4193 64.3885 25.3575 64.3342C25.3545 64.3327 25.3523 64.3304 25.3501 64.3282C25.2794 64.2679 25.2102 64.2069 25.141 64.1459C25.1164 64.1243 25.0918 64.1027 25.0673 64.0811C25.0174 64.0372 24.9683 63.994 24.9192 63.9494C24.8619 63.8988 24.8053 63.8474 24.7488 63.7954C24.6796 63.7328 24.6103 63.6696 24.5419 63.6063C24.4399 63.5118 24.3395 63.4173 24.2397 63.3228C24.1906 63.2766 24.1415 63.2298 24.0931 63.1829C23.9235 63.0192 23.756 62.8547 23.5916 62.6895C23.5335 62.6315 23.4755 62.5726 23.4182 62.5139C23.2701 62.3628 23.1249 62.211 22.9821 62.0592C22.9136 61.9877 22.8466 61.9155 22.7804 61.8434C22.4901 61.5301 22.2096 61.2145 21.9387 60.8975C21.8896 60.8409 21.8412 60.7836 21.7936 60.7271C21.4133 60.2768 21.0509 59.8244 20.7063 59.3712C20.6565 59.3057 20.6074 59.2402 20.5583 59.1747C20.265 58.784 19.9845 58.3933 19.7166 58.0033C19.666 57.9304 19.6161 57.8568 19.567 57.7838C19.5261 57.7236 19.4851 57.6625 19.4449 57.6022C19.3817 57.5085 19.3199 57.4147 19.2589 57.3217C19.212 57.2495 19.1651 57.1781 19.119 57.1066C19.0706 57.0315 19.0223 56.9563 18.9754 56.8819C18.9277 56.8067 18.8801 56.7323 18.834 56.6571C18.7863 56.582 18.7402 56.5075 18.6948 56.4331C18.6494 56.3587 18.604 56.2843 18.5586 56.2099C18.514 56.1362 18.4693 56.0618 18.4254 55.9881C18.3927 55.9338 18.3607 55.8794 18.3287 55.8251C18.2862 55.7537 18.2446 55.6822 18.2036 55.6108C17.7207 54.7795 17.2913 53.9669 16.9103 53.187C16.8768 53.1185 16.8433 53.0493 16.8105 52.9809C16.6453 52.6385 16.4898 52.3029 16.3432 51.9747C16.3208 51.9256 16.2993 51.8765 16.2777 51.8274C16.1847 51.616 16.0946 51.4084 16.0083 51.2045C15.9822 51.1412 15.9554 51.0787 15.9301 51.0169C15.8394 50.7981 15.7523 50.5838 15.6697 50.374C15.6451 50.3129 15.6213 50.2519 15.5982 50.1916C15.5514 50.0711 15.5052 49.952 15.4613 49.8344C15.439 49.7756 15.4174 49.7176 15.3958 49.6595C15.3884 49.6402 15.3817 49.6216 15.3742 49.6022C15.3393 49.507 15.3043 49.4125 15.2708 49.3202C15.2641 49.2994 15.2559 49.2785 15.2485 49.2577C15.2314 49.2093 15.2143 49.1617 15.1979 49.1141C15.1718 49.0419 15.1465 48.9704 15.122 48.8997C15.0959 48.8238 15.0699 48.7486 15.0446 48.675C14.6345 47.4679 14.3964 46.5585 14.2833 46.0875C14.2788 46.0681 14.2743 46.0495 14.2699 46.0316C14.2587 45.9825 14.2483 45.9386 14.2401 45.9014C14.2364 45.8873 14.2334 45.8739 14.2312 45.8612C14.2245 45.8337 14.22 45.8106 14.2156 45.792C14.2126 45.7794 14.2103 45.7682 14.2089 45.7593C14.2044 45.7384 14.2021 45.728 14.2021 45.728L18.0302 46.9247L16.076 43.9978L15.6674 43.3861L18.0347 43.0489L23.7292 42.2385C23.5982 45.0143 23.8334 47.7507 24.2896 50.3457C24.8552 53.5613 25.7594 56.5604 26.7268 59.1487C28.0113 62.5861 29.4044 65.2986 30.258 66.8324C30.7566 67.7284 31.0706 68.2218 31.0706 68.2218H31.0699Z" fill="#135DD3"/>
<path d="M69.2861 64.9273V73.4877H-3.4231L-3.41566 60.9064L6.42098 46.467C6.50284 46.3472 6.58844 46.2311 6.67923 46.1194C7.509 45.0902 8.69449 44.4004 10.011 44.192L15.6668 43.3861L16.0753 43.9978L18.0296 46.9247L14.2015 45.728C14.2015 45.728 14.2037 45.7384 14.2082 45.7593C14.2096 45.7682 14.2119 45.7794 14.2149 45.792C14.2193 45.8106 14.2238 45.8337 14.2305 45.8612C14.2327 45.8739 14.2357 45.8873 14.2394 45.9014C14.2476 45.9386 14.258 45.9825 14.2692 46.0316C14.2736 46.0495 14.2781 46.0681 14.2826 46.0875C14.3957 46.5585 14.6338 47.4679 15.0439 48.675C15.0692 48.7486 15.0952 48.8238 15.1213 48.8997C15.1458 48.9704 15.1711 49.0419 15.1972 49.1141C15.2136 49.1617 15.2307 49.2093 15.2478 49.2577C15.2552 49.2785 15.2634 49.2994 15.2701 49.3202C15.3036 49.4125 15.3386 49.507 15.3735 49.6022C15.381 49.6216 15.3877 49.6402 15.3951 49.6595C15.4167 49.7176 15.4383 49.7756 15.4606 49.8344C15.5045 49.952 15.5507 50.0711 15.5975 50.1916C15.6206 50.2519 15.6444 50.3129 15.669 50.374C15.7516 50.5838 15.8387 50.7981 15.9294 51.0169C15.9548 51.0795 15.9815 51.142 16.0076 51.2045C16.0939 51.4084 16.184 51.616 16.277 51.8274C16.2986 51.8765 16.3201 51.9256 16.3425 51.9747C16.4891 52.3029 16.6446 52.6385 16.8098 52.9809C16.8426 53.0493 16.8753 53.1178 16.9096 53.187C17.2906 53.9669 17.72 54.7795 18.2029 55.6108C18.2439 55.6822 18.2855 55.7537 18.328 55.8251C18.36 55.8794 18.392 55.9338 18.4247 55.9881C18.4679 56.0618 18.5125 56.1354 18.5579 56.2099C18.6026 56.2843 18.648 56.3587 18.6941 56.4331C18.7395 56.5075 18.7856 56.582 18.8333 56.6571C18.8794 56.7315 18.9263 56.8067 18.9747 56.8819C19.0216 56.9563 19.0699 57.0315 19.1183 57.1066C19.1644 57.1781 19.2106 57.2502 19.2582 57.3217C19.3192 57.4147 19.381 57.5085 19.4442 57.6022C19.4837 57.6625 19.5246 57.7236 19.5663 57.7838C19.6154 57.8568 19.6653 57.9304 19.7159 58.0033C19.9838 58.3933 20.2643 58.784 20.5576 59.1747C20.6059 59.2402 20.6558 59.3057 20.7056 59.3712C21.0502 59.8244 21.4126 60.2768 21.7929 60.7271C21.8405 60.7836 21.8889 60.8409 21.938 60.8975C22.2089 61.2145 22.4895 61.5301 22.7797 61.8434C22.8459 61.9155 22.9129 61.9877 22.9814 62.0592C23.1242 62.211 23.2694 62.3628 23.4175 62.5138C23.4748 62.5726 23.5321 62.6307 23.5909 62.6895C23.7553 62.8547 23.9228 63.0192 24.0924 63.1829C24.1408 63.2298 24.1899 63.2766 24.239 63.3228C24.3388 63.4173 24.4392 63.5118 24.5412 63.6063C24.6096 63.6696 24.6781 63.7328 24.7481 63.7954C24.8046 63.8474 24.8612 63.8988 24.9185 63.9494C24.9676 63.994 25.0167 64.0372 25.0666 64.0811C25.0911 64.1027 25.1157 64.1243 25.1402 64.1459C25.2094 64.2069 25.2787 64.2679 25.3494 64.3282C25.3516 64.3304 25.3538 64.3327 25.3568 64.3342C25.4186 64.3885 25.4811 64.4421 25.5443 64.4942C25.5987 64.541 25.653 64.5872 25.708 64.6326C25.7899 64.7018 25.8725 64.7695 25.9559 64.8379C26.0347 64.9027 26.1136 64.9667 26.194 65.0307C26.2067 65.0411 26.2201 65.0515 26.2327 65.0612C26.3064 65.1207 26.3801 65.1795 26.4545 65.2376C26.4612 65.2428 26.4679 65.248 26.4746 65.2532C26.5557 65.3172 26.6368 65.3805 26.7194 65.443C26.8035 65.5077 26.8891 65.5725 26.9747 65.6365C27.09 65.7228 27.2054 65.8084 27.3222 65.8932C27.3855 65.9401 27.4495 65.9855 27.5135 66.0316C27.6028 66.0964 27.6936 66.1604 27.7844 66.2236C28.1698 66.4938 28.565 66.7565 28.9713 67.0132C29.1417 67.1204 29.3136 67.2268 29.4878 67.3317C29.7192 67.4716 29.9536 67.6086 30.191 67.7425C30.351 67.8341 30.5125 67.9233 30.6755 68.0112C30.8057 68.0826 30.9367 68.1526 31.0692 68.2218C44.8813 60.9883 47.8201 45.7637 47.8201 45.7637L43.9912 46.9604L44.9438 45.5345L45.359 44.9124L46.3577 43.4173L43.1138 42.95L51.9689 44.2121C53.3516 44.4309 54.5937 45.1825 55.4294 46.3055L60.1996 52.7166L69.2854 64.9273H69.2861Z" fill="#2A6FF1"/>
<path d="M24.2889 50.3456C24.5583 51.1114 25.4015 53.1021 27.4108 55.0548C27.3594 50.8412 29.4908 47.8809 29.8457 47.418C29.7177 47.3748 29.6002 47.3034 29.5027 47.2067L28.5107 46.2221L26.9628 47.8801L23.9153 42.2117L23.73 42.2377C23.5983 45.0135 23.8342 47.7499 24.2904 50.3449L24.2889 50.3456Z" fill="#E2D2F9"/>
<path d="M29.7557 61.446C30.1465 61.446 30.4634 61.1291 30.4634 60.7382C30.4634 60.3474 30.1465 60.0305 29.7557 60.0305C29.3648 60.0305 29.048 60.3474 29.048 60.7382C29.048 61.1291 29.3648 61.446 29.7557 61.446Z" fill="#DD9828"/>
<path d="M25.217 28.9205L25.083 32.5685C24.7481 31.1776 24.2584 29.792 23.5939 28.512C23.7442 28.5708 23.8953 28.6221 24.0426 28.666C24.6402 28.8469 25.1641 28.9138 25.2132 28.9198C25.2155 28.9205 25.217 28.9205 25.217 28.9205Z" fill="#700517"/>
<g style="mix-blend-mode:multiply">
<path d="M28.2635 30.7572C28.2635 30.7572 29.7906 39.4612 37.1164 39.0028V35.2059C37.1164 35.2059 31.7188 35.6986 28.2635 30.7572Z" fill="#DBAB9A"/>
</g>
<g style="mix-blend-mode:multiply">
<path d="M38.2922 42.263L37.996 42.2206L36.9802 39.7938L30.9129 43.6666L24.8455 39.7946L23.6927 42.5533L26.5646 49.1572C26.6576 49.3707 26.9441 49.4087 27.0892 49.2264L30.9129 44.4338L34.738 49.2279C34.8831 49.4095 35.1689 49.3722 35.2619 49.1594L38.2922 42.2638V42.263Z" fill="#B99FE2"/>
</g>
<g style="mix-blend-mode:screen">
<path d="M39.4465 34.8316C44.597 29.5777 40.7034 17.6469 40.7034 17.6469C41.3769 17.7577 41.9648 18.2273 42.2089 18.9045C42.4195 19.4902 42.5854 20.0937 42.7112 20.701C42.8035 21.146 42.895 21.6498 42.9769 22.1938C43.6206 26.4536 43.7092 33.2368 39.4465 34.8316Z" fill="#F9BEA5"/>
</g>
<g style="mix-blend-mode:screen">
<path d="M40.9967 13.4362C38.5892 13.6759 36.3976 12.1584 34.0668 11.508C32.3053 11.0169 30.4315 11.0243 28.6283 11.3294C28.3857 11.3704 28.0739 11.5207 28.1394 11.7573C28.1721 11.8734 28.2882 11.9419 28.3954 11.9985C28.9342 12.2842 29.5645 12.7516 29.4208 13.3439C29.3561 13.6104 29.1425 13.812 28.929 13.9847C26.9836 15.5579 23.8901 15.9999 21.4476 15.8809C20.8054 15.8496 20.0969 15.5728 19.8253 15.0131C20.8181 14.0427 22.2655 13.4414 23.8216 13.0723C23.8216 13.0723 23.8052 12.8602 23.835 12.5194C23.835 12.5186 23.8357 12.5171 23.8357 12.5164C23.9354 12.0699 23.9734 11.6345 24.123 11.1985C24.1267 11.1865 24.1312 11.1739 24.1356 11.1612C24.1416 11.1441 24.1475 11.1278 24.1542 11.1106C24.1572 11.1025 24.1609 11.0935 24.1639 11.0853C24.1803 11.0437 24.1967 11.002 24.2145 10.9603C24.2294 10.9246 24.2443 10.8889 24.2607 10.8532C24.7868 9.6766 25.755 8.80217 26.9368 8.29762C27.0238 8.26115 27.1124 8.22544 27.2017 8.19269C32.3492 6.28758 35.3706 9.94004 35.3706 9.94004C35.3803 9.9393 35.39 9.9378 35.4004 9.93706C35.4071 9.93632 35.413 9.93557 35.4197 9.93482H35.4227C36.507 9.93482 37.5429 9.89018 38.6167 10.1224C39.1496 10.2377 39.6936 10.3977 40.1632 10.6827C40.5643 10.9261 41.2155 11.2364 41.2609 11.7544C40.8575 11.5847 40.3998 11.6584 39.9622 11.6636C39.5142 11.6688 39.0647 11.5981 38.6398 11.4552C38.302 11.3413 37.9775 11.1828 37.6278 11.1144C37.3241 11.0556 36.4251 10.9075 36.728 11.3778C36.9468 11.7171 37.7535 12.0178 38.107 12.2083C38.581 12.4636 39.067 12.6965 39.5626 12.9064C39.9146 13.0544 40.6157 13.4742 40.9967 13.4362Z" fill="#700517"/>
</g>
<g style="mix-blend-mode:multiply" opacity="0.7">
<path d="M44.8575 19.6368C44.2323 20.3065 43.4011 21.2911 42.9769 22.1938C42.895 21.6498 42.8035 21.146 42.7112 20.7009C42.5854 20.0937 42.4195 19.4901 42.2089 18.9045C42.1828 18.8315 42.1523 18.7608 42.1181 18.6931C42.3778 18.7177 42.6063 19.002 42.863 19.1456C43.2857 19.3815 44.216 19.7238 44.8575 19.6368Z" fill="#700517"/>
</g>
<g style="mix-blend-mode:screen">
<path d="M43.8476 13.6379L43.5298 13.568C43.535 13.565 43.541 13.5628 43.5462 13.5605C43.6429 13.5821 43.7434 13.6082 43.8476 13.6379Z" fill="#700517"/>
</g>
<g style="mix-blend-mode:screen">
<path d="M46.2558 16.977C46.1814 17.5106 46.0057 18.0211 45.7467 18.487C45.743 18.481 45.7393 18.4751 45.7363 18.4684C45.7207 18.4341 45.7155 18.3954 45.711 18.3582C45.6671 18.0032 45.6225 17.6475 45.5786 17.2926C45.5205 16.826 45.4617 16.3534 45.2861 15.9173C44.9966 15.1954 44.4139 14.6321 43.7985 14.1558C43.669 14.0561 43.5254 13.8767 43.6333 13.7532C43.7322 13.6386 43.9168 13.7301 44.0679 13.7071C45.2035 14.0873 46.5356 14.964 46.2558 16.977Z" fill="#700517"/>
</g>
<g style="mix-blend-mode:screen">
<path d="M31.5135 20.7337C28.5747 21.329 27.7836 24.9674 27.6943 25.4273C27.6296 25.1705 27.6251 24.8862 27.6496 24.6235C27.7732 23.3011 28.3975 22.0323 29.3702 21.1288C29.6649 20.855 30.0816 20.5558 30.1881 20.1443C30.3629 19.4648 30.194 18.647 30.1263 17.9579C30.1211 17.905 30.1174 17.847 30.1494 17.8046C30.2186 17.713 30.3644 17.7822 30.4485 17.8604C30.4641 17.8753 30.4798 17.8902 30.4947 17.905L31.5135 20.7337Z" fill="#700517"/>
</g>
<g style="mix-blend-mode:screen">
<path d="M26.4285 23.3421C26.3347 23.5132 26.1866 23.6398 26.005 23.7291C25.7386 23.86 25.4417 23.9136 25.138 23.9501C24.7235 23.9999 24.2964 24.0178 23.9124 24.1532C23.6794 24.2351 23.4472 24.3259 23.2426 24.4628C23.0171 24.6131 22.8303 24.8156 22.6145 24.9793C22.5654 25.0165 22.514 25.0522 22.4604 25.0842C22.7901 23.8072 23.8804 22.8688 25.1753 22.8688H25.1894C25.6523 22.8718 26.0884 23.0466 26.4285 23.3421Z" fill="#F9BEA5"/>
</g>
<path d="M30.9561 43.5281L30.997 43.5586L30.9561 43.6025L33.4841 46.3098L34.9501 47.8801L37.9961 42.2205V42.2198L37.1164 39.0034V39.0027L30.9561 43.5281Z" fill="#735FFF"/>
<path d="M28.5099 46.2221L30.956 43.6025L30.997 43.5586L30.956 43.5281L24.8463 39.0399H24.8455L23.9146 42.2116L26.962 47.8801L28.5099 46.2221Z" fill="#735FFF"/>
<g style="mix-blend-mode:screen">
<path d="M37.1164 39.0035L30.9561 43.5282L32.6677 45.5338L37.2549 39.5542L37.1164 39.0035Z" fill="#735FFF"/>
</g>
<g style="mix-blend-mode:screen">
<path d="M24.8464 39.0399L30.9561 43.5281L29.0019 45.6676L24.6595 39.4321L24.8464 39.0399Z" fill="#735FFF"/>
</g>
<g style="mix-blend-mode:screen">
<path d="M60.2003 52.7166L60.1907 52.7248L54.9799 47.5952C53.8926 46.525 52.4853 45.8396 50.9732 45.6424L45.3114 44.9853L45.5652 44.605L38.3667 43.8013L38.2922 42.2631L43.1146 42.9499L51.9696 44.2121C53.3523 44.4309 54.5944 45.1825 55.4301 46.3055L60.2003 52.7166Z" fill="#2A6FF1"/>
</g>
<g style="mix-blend-mode:multiply">
<path d="M38.2908 44.8297C38.2365 46.6745 38.069 48.4413 37.8205 50.1202C36.1922 61.0708 31.07 68.2217 31.07 68.2217C31.07 68.2217 30.7559 67.7283 30.2573 66.8323C30.3228 66.7512 30.3913 66.6716 30.4635 66.592C34.3459 62.3084 38.2305 45.0984 38.2908 44.8297Z" fill="#B99FE2"/>
</g>
<g style="mix-blend-mode:screen">
<path d="M31.0669 68.1897C25.4758 64.0126 21.237 58.4275 18.4857 54.0978C17.1462 51.9895 16.1944 49.6573 15.6809 47.2126C15.6615 47.1203 15.6518 47.0712 15.6518 47.0712L16.8545 47.5862C19.3802 48.7337 18.0302 46.9596 18.0302 46.9596L14.2014 45.7629C14.2014 45.7629 15.3676 51.8013 19.6809 58.0792C19.5856 57.9185 19.4933 57.7555 19.4018 57.591C21.967 61.4124 25.7095 65.3886 31.0684 68.1964H31.0721L31.0773 68.1979C31.0736 68.195 31.0706 68.192 31.0669 68.189V68.1897Z" fill="#2A6FF1"/>
</g>
<g style="mix-blend-mode:screen">
<path d="M45.8048 51.8094C44.9817 53.7027 43.855 55.8764 42.3414 58.08C41.9678 58.6247 41.5704 59.1702 41.1484 59.7142C39.2946 62.1008 36.9609 64.4494 34.0377 66.4409C34.1508 66.3166 41.5905 58.6939 45.8048 51.8094Z" fill="#2A6FF1"/>
</g>
<g style="mix-blend-mode:screen">
<path d="M24.9059 53.2732C24.9059 53.2732 26.3474 55.898 29.7386 56.9808C29.7386 56.9808 25.2266 53.524 24.2889 50.3448L24.9059 53.2732Z" fill="#CA6754"/>
</g>
<g style="mix-blend-mode:screen">
<path d="M34.6725 55.0057L34.4761 55.1687C33.973 50.7773 31.4398 47.6926 31.2723 47.4589C31.2664 47.4508 31.4592 47.453 31.4592 47.453L31.0774 47.4656C32.0307 47.3064 32.8106 46.9008 32.8582 46.8755L32.2376 47.418C32.5903 47.8787 34.7068 50.8182 34.6725 55.0057Z" fill="#CA6754"/>
</g>
<g style="mix-blend-mode:screen">
<path d="M18.034 43.0488C17.7609 43.2594 17.458 43.441 17.0822 43.5973C16.748 43.7357 16.4132 43.8697 16.0753 43.9977C15.2262 44.3221 14.3659 44.6138 13.4915 44.8669C11.2708 45.5084 8.98246 45.9221 6.6792 46.1193C7.50897 45.0901 8.69446 44.4003 10.0109 44.1919L15.6667 43.3859L18.034 43.0488Z" fill="#2A6FF1"/>
</g>
<g style="mix-blend-mode:multiply">
<path d="M39.3914 17.8448C39.2984 18.1038 39.0067 18.2236 38.7447 18.3092C36.8478 18.9268 35.0111 19.168 33.0986 19.0578C32.5739 19.0273 32.0441 18.9707 31.506 18.8881C31.4569 18.88 31.4041 18.8732 31.3609 18.8978C31.3162 18.9224 31.2947 18.973 31.2768 19.0206C31.2024 19.2223 31.1503 19.4306 31.1205 19.6435L30.4218 17.7026C30.4657 17.7339 32.1289 18.9067 35.9845 18.5019L39.2619 17.8694L39.3914 17.8448Z" fill="#DBAB9A"/>
</g>
<g style="mix-blend-mode:multiply">
<path d="M40.053 17.7332L39.4673 17.9177C39.6422 17.7852 39.8267 17.6781 40.053 17.7332Z" fill="#F9BEA5"/>
</g>
<path d="M25.1751 29.0322C24.5396 29.0322 23.9346 28.8179 23.4255 28.4116C23.3772 28.3729 23.3697 28.3029 23.4077 28.2545C23.4464 28.2061 23.5163 28.1987 23.5647 28.2367C24.0335 28.611 24.5902 28.809 25.1744 28.809C25.5718 28.809 25.9543 28.7182 26.3115 28.5395C26.3666 28.512 26.4335 28.5343 26.4611 28.5894C26.4886 28.6445 26.4663 28.7115 26.4112 28.739C26.0228 28.9332 25.606 29.0315 25.1737 29.0315L25.1751 29.0322Z" fill="#231F20"/>
<path d="M23.4956 28.4354C23.471 28.4354 23.4464 28.4272 23.4256 28.4109C22.892 27.9844 22.5065 27.3712 22.3398 26.6851C22.3249 26.6248 22.3621 26.5645 22.4217 26.5504C22.4827 26.5355 22.5422 26.5727 22.5564 26.6323C22.7112 27.2708 23.0691 27.8408 23.5648 28.2367C23.6131 28.2754 23.6206 28.3454 23.5826 28.3937C23.5603 28.4213 23.5283 28.4354 23.4956 28.4354Z" fill="#231F20"/>
<path d="M25.3873 26.6218C25.3739 26.6218 25.3605 26.6195 25.3471 26.6143C25.2898 26.592 25.2608 26.528 25.2831 26.47C25.3575 26.275 25.336 26.1098 25.2154 25.9654C25.0174 25.728 24.7406 25.8612 24.3864 26.1358C24.3685 26.15 24.3454 26.1686 24.3179 26.1909C24.0478 26.4127 23.768 26.621 23.5737 26.522C23.4703 26.4692 23.4241 26.3479 23.436 26.1619C23.4606 25.7779 23.5804 25.4013 23.7813 25.0739C23.9517 24.797 24.1564 24.5961 24.3901 24.4778C24.8813 24.2285 25.4781 24.3371 25.9968 24.477C26.0563 24.4926 26.0913 24.5544 26.0757 24.614C26.0601 24.6735 25.999 24.7092 25.9387 24.6928C25.461 24.5641 24.9147 24.4622 24.4905 24.6772C24.2941 24.7769 24.1192 24.9496 23.9711 25.1914C23.7888 25.4884 23.6801 25.8292 23.6578 26.1767C23.6504 26.2981 23.6749 26.3248 23.6757 26.3248C23.7069 26.3382 23.8141 26.3166 24.175 26.0197C24.204 25.9959 24.2293 25.9751 24.2487 25.9602C24.4764 25.7846 25.01 25.3723 25.3858 25.824C25.5577 26.0301 25.5934 26.2817 25.4907 26.5511C25.4736 26.5957 25.4312 26.6225 25.3865 26.6225L25.3873 26.6218Z" fill="#231F20"/>
<path d="M38.5727 26.3837C38.2512 26.3837 37.9096 26.1806 37.6075 25.9834C37.5562 25.9499 37.5412 25.8807 37.5747 25.8286C37.609 25.7772 37.6774 25.7623 37.7295 25.7958C37.9565 25.9439 38.3785 26.22 38.6813 26.1478C38.7982 26.1203 38.8927 26.0422 38.9686 25.9104C39.2172 25.481 39.1926 24.7726 38.8964 23.8617C38.6427 23.0803 38.2281 22.3711 37.8962 21.8405C37.8635 21.7884 37.8791 21.7192 37.9312 21.6864C37.9833 21.6537 38.0525 21.6693 38.0853 21.7214C38.4246 22.2624 38.8473 22.9873 39.1085 23.7917C39.4293 24.7785 39.4471 25.5287 39.1614 26.0213C39.0542 26.2066 38.9098 26.322 38.7327 26.3636C38.6799 26.3763 38.6263 26.3822 38.5727 26.3822V26.3837Z" fill="#231F20"/>
<path d="M36.7748 35.3236C33.7072 35.3236 31.5603 34.1456 30.284 33.1364C28.8492 32.0016 28.1936 30.8607 28.166 30.8131C28.1355 30.7595 28.1541 30.6918 28.2077 30.6613C28.2613 30.6308 28.3298 30.6494 28.3595 30.703C28.3662 30.7141 29.0256 31.8594 30.4291 32.9675C31.7225 33.9885 33.9327 35.1859 37.1119 35.0959C37.1714 35.0929 37.225 35.1428 37.2265 35.2045C37.228 35.2663 37.1796 35.3177 37.1179 35.3191C37.0018 35.3221 36.8872 35.3243 36.7733 35.3243L36.7748 35.3236Z" fill="#231F20"/>
<path d="M37.1164 35.3184C37.0561 35.3184 37.0062 35.2708 37.0047 35.2097C37.0032 35.148 37.0516 35.0966 37.1134 35.0951C37.4408 35.0862 37.7735 35.0639 38.1009 35.0289C39.5082 34.8801 40.6423 34.2594 41.4721 33.1841C43.7768 30.1999 43.215 24.5158 42.8667 22.2103C42.8578 22.1493 42.8994 22.0927 42.9604 22.083C43.0215 22.0734 43.078 22.1158 43.0877 22.1768C43.4404 24.5106 44.0068 30.2691 41.6492 33.321C40.78 34.4462 39.5945 35.0959 38.1247 35.2514C37.7913 35.2864 37.4535 35.3095 37.1201 35.3191C37.1193 35.3191 37.1178 35.3191 37.1171 35.3191L37.1164 35.3184Z" fill="#231F20"/>
<path d="M25.0836 32.6802C25.0836 32.6802 25.0806 32.6802 25.0792 32.6802C25.0174 32.678 24.9698 32.6259 24.972 32.5649L25.1059 28.9169C25.1082 28.8551 25.1625 28.8067 25.2213 28.8097C25.283 28.8119 25.3307 28.864 25.3285 28.9251L25.1945 32.5731C25.1923 32.6333 25.1424 32.681 25.0829 32.681L25.0836 32.6802Z" fill="#231F20"/>
<path d="M24.8462 39.1517C24.8462 39.1517 24.8432 39.1517 24.8417 39.1517C24.78 39.1495 24.7323 39.0974 24.7346 39.0364L24.972 32.5649C24.9742 32.5032 25.027 32.4548 25.0873 32.4578C25.1491 32.46 25.1967 32.5121 25.1945 32.5731L24.9571 39.0446C24.9548 39.1048 24.905 39.1525 24.8454 39.1525L24.8462 39.1517Z" fill="#231F20"/>
<path d="M43.1145 43.0617C43.1093 43.0617 43.1041 43.0617 43.0989 43.0609L38.2765 42.3741C38.2155 42.3651 38.1731 42.3086 38.182 42.2476C38.191 42.1865 38.2468 42.1441 38.3086 42.153L43.1309 42.8399C43.1919 42.8489 43.2343 42.9054 43.2254 42.9665C43.2172 43.0223 43.1696 43.0624 43.1152 43.0624L43.1145 43.0617Z" fill="#231F20"/>
<path d="M38.2929 42.3748C38.2877 42.3748 38.2825 42.3748 38.2773 42.3741L37.9803 42.3317C37.9193 42.3227 37.8769 42.2662 37.8858 42.2051C37.8948 42.1441 37.9498 42.1025 38.0124 42.1106L38.3093 42.1531C38.3703 42.162 38.4127 42.2185 38.4038 42.2796C38.3956 42.3354 38.348 42.3756 38.2936 42.3756L38.2929 42.3748Z" fill="#231F20"/>
<path d="M69.286 73.5994H-3.42316C-3.45293 73.5994 -3.48121 73.5874 -3.50205 73.5666C-3.52289 73.5457 -3.53479 73.5175 -3.53479 73.4877L-3.52736 60.9065C-3.52736 60.8842 -3.52066 60.8626 -3.50801 60.844L6.32864 46.4046C7.17403 45.1633 8.50984 44.3164 9.99375 44.082L15.6518 43.2767C15.7136 43.2678 15.7694 43.3102 15.7783 43.3713C15.7873 43.4323 15.7448 43.4888 15.6838 43.4978L10.028 44.303C8.6066 44.5285 7.32584 45.3404 6.51468 46.5311L-3.30261 60.9422L-3.30932 73.3768H69.1759V64.9653L55.3422 46.3733C54.5191 45.2667 53.3158 44.5389 51.9539 44.3231L43.1011 43.0609C43.0401 43.052 42.9977 42.9954 43.0066 42.9344C43.0155 42.8734 43.0714 42.8317 43.1331 42.8399L51.9882 44.102C53.4096 44.3275 54.6643 45.0859 55.5223 46.2393L69.3783 64.8611C69.3925 64.8804 69.4006 64.9035 69.4006 64.9281V73.4885C69.4006 73.5502 69.3508 73.6001 69.289 73.6001L69.286 73.5994Z" fill="#231F20"/>
<path d="M15.6668 43.4977C15.6124 43.4977 15.564 43.4575 15.5566 43.4017C15.5477 43.3407 15.5901 43.2841 15.6511 43.2752L23.7129 42.1277C23.7747 42.1187 23.8305 42.1611 23.8394 42.2222C23.8483 42.2832 23.8059 42.3397 23.7449 42.3487L15.6831 43.4962C15.6779 43.4962 15.6727 43.4969 15.6675 43.4969L15.6668 43.4977Z" fill="#231F20"/>
<path d="M23.7285 42.3502C23.6742 42.3502 23.6258 42.31 23.6184 42.2542C23.6094 42.1932 23.6519 42.1366 23.7129 42.1277L23.8982 42.1017C23.9585 42.0927 24.0158 42.1351 24.0247 42.1962C24.0336 42.2572 23.9912 42.3137 23.9302 42.3227L23.7449 42.3487C23.7397 42.3487 23.7345 42.3495 23.7293 42.3495L23.7285 42.3502Z" fill="#231F20"/>
<path d="M37.1164 35.3176C37.0546 35.3176 37.0048 35.2685 37.0048 35.2068V35.2045C37.0048 35.1428 37.0546 35.0929 37.1164 35.0929C37.1782 35.0929 37.228 35.1428 37.228 35.2045C37.228 35.2663 37.1782 35.3169 37.1164 35.3169V35.3176Z" fill="#231F20"/>
<path d="M37.1164 39.1152C37.0546 39.1152 37.0048 39.0653 37.0048 39.0036V35.2067C37.0048 35.145 37.0546 35.0951 37.1164 35.0951C37.1782 35.0951 37.228 35.145 37.228 35.2067V39.0036C37.228 39.0653 37.1782 39.1152 37.1164 39.1152Z" fill="#231F20"/>
<path d="M23.9145 42.3234C23.9041 42.3234 23.8937 42.3219 23.8833 42.319C23.8245 42.3019 23.7903 42.2393 23.8074 42.1806L24.7384 39.0088C24.748 38.9746 24.7741 38.9478 24.8076 38.9352C24.8411 38.9232 24.8783 38.9277 24.9073 38.9471C24.9512 38.9761 24.9676 39.0312 24.9505 39.0788L24.0217 42.2431C24.0076 42.2914 23.9629 42.3234 23.9145 42.3234Z" fill="#231F20"/>
<path d="M26.9619 47.9918C26.9575 47.9918 26.9523 47.9918 26.9478 47.9911C26.9121 47.9866 26.8808 47.965 26.8637 47.933L23.8163 42.2646C23.7872 42.2102 23.8073 42.1425 23.8617 42.1135C23.916 42.0845 23.9837 42.1046 24.0127 42.1589L26.9865 47.6904L28.4287 46.1463C28.4711 46.1009 28.5418 46.0986 28.5865 46.141C28.6319 46.1835 28.6341 46.2534 28.5917 46.2988L27.0438 47.9568C27.0222 47.9799 26.9932 47.9926 26.9619 47.9926V47.9918Z" fill="#231F20"/>
<path d="M28.5098 46.3339C28.4823 46.3339 28.4555 46.3242 28.4339 46.3041C28.3885 46.2617 28.3863 46.1917 28.4287 46.1463L30.8748 43.5268C30.9173 43.4814 30.988 43.4792 31.0326 43.5216C31.078 43.564 31.0802 43.634 31.0378 43.6794L28.5917 46.2989C28.5693 46.3227 28.5396 46.3346 28.5098 46.3346V46.3339Z" fill="#231F20"/>
<path d="M30.956 43.7143C30.9285 43.7143 30.9017 43.7047 30.8801 43.6846C30.8466 43.6533 30.837 43.6064 30.8511 43.5655C30.8392 43.532 30.8437 43.4933 30.8667 43.4621C30.9032 43.4122 30.9732 43.4018 31.023 43.4382L31.0639 43.4688C31.0892 43.4874 31.1056 43.5164 31.1086 43.5484C31.1116 43.5804 31.1012 43.6116 31.0788 43.6347L31.0379 43.6786C31.0156 43.7024 30.9858 43.7143 30.956 43.7143Z" fill="#231F20"/>
<path d="M30.9559 43.6398C30.9328 43.6398 30.9098 43.6331 30.8897 43.6182L24.7799 39.1301C24.7301 39.0936 24.7196 39.0236 24.7561 38.9738C24.7926 38.9239 24.8625 38.9135 24.9124 38.95L31.0222 43.4381C31.072 43.4746 31.0824 43.5446 31.046 43.5944C31.0244 43.6242 30.9901 43.6398 30.9559 43.6398Z" fill="#231F20"/>
<path d="M30.956 43.6399C30.9218 43.6399 30.8875 43.6243 30.866 43.5945C30.8295 43.5447 30.8399 43.4747 30.8898 43.4382L37.0502 38.9128L37.1826 39.0929L31.0222 43.6183C31.0022 43.6332 30.9791 43.6399 30.956 43.6399Z" fill="#231F20"/>
<path d="M34.95 47.9918C34.9195 47.9918 34.8897 47.9792 34.8681 47.9561L33.4021 46.3859C33.3597 46.3405 33.3626 46.2705 33.4073 46.2281C33.4519 46.1864 33.5226 46.1886 33.565 46.2333L34.9247 47.6897L37.8969 42.1671C37.926 42.1127 37.9937 42.0926 38.048 42.1217C38.1024 42.1507 38.1224 42.2184 38.0934 42.2727L35.0475 47.9323C35.0303 47.9643 34.9991 47.9851 34.9634 47.9903C34.9589 47.9903 34.9537 47.9911 34.9492 47.9911L34.95 47.9918Z" fill="#231F20"/>
<path d="M37.996 42.3316C37.9744 42.3316 37.9536 42.3256 37.9342 42.3129C37.9082 42.2958 37.8918 42.2698 37.8866 42.2415L37.0092 39.0326C36.9928 38.973 37.0278 38.912 37.0873 38.8956C37.1461 38.8793 37.2079 38.9142 37.2243 38.9738L38.1039 42.1901C38.1121 42.2214 38.1069 42.2549 38.089 42.2817C38.0674 42.3137 38.0317 42.3316 37.996 42.3316Z" fill="#231F20"/>
<path d="M33.484 46.4216C33.4542 46.4216 33.4244 46.4097 33.4021 46.3859L30.8741 43.6786C30.8317 43.6332 30.8347 43.5632 30.8793 43.5208C30.924 43.4791 30.9947 43.4813 31.0371 43.526L33.5651 46.2334C33.6075 46.2788 33.6045 46.3487 33.5599 46.3911C33.5383 46.4112 33.5108 46.4209 33.484 46.4209V46.4216Z" fill="#231F20"/>
<path d="M31.0699 68.3334C31.0327 68.3334 30.997 68.3148 30.9754 68.2821C30.9523 68.2456 28.6364 64.5827 26.6211 59.1881C26.5996 59.13 26.6286 59.0661 26.6867 59.0445C26.7447 59.0229 26.8087 59.0519 26.8303 59.11C28.8366 64.4815 31.1406 68.1258 31.1637 68.1622C31.1964 68.2143 31.1815 68.2835 31.1294 68.3163C31.1108 68.3282 31.09 68.3334 31.0699 68.3334Z" fill="#231F20"/>
<path d="M31.0698 68.3335C31.0527 68.3335 31.0348 68.3298 31.0177 68.3208C27.8556 66.665 24.998 64.4473 22.5243 61.731C20.5463 59.558 18.8078 57.0635 17.3574 54.3145C16.067 51.8699 15.2484 49.6723 14.7885 48.2598C14.2899 46.7275 14.0934 45.7593 14.0919 45.7497C14.0845 45.711 14.0971 45.6708 14.1269 45.6447C14.1567 45.6187 14.1976 45.6098 14.2348 45.6209L17.7615 46.7231L15.5736 43.4479C15.5394 43.3965 15.5528 43.3273 15.6041 43.2931C15.6555 43.2589 15.7247 43.2723 15.7589 43.3236L18.1217 46.8615C18.1478 46.9009 18.1463 46.9523 18.118 46.9902C18.0897 47.0282 18.0406 47.0438 17.9952 47.0297L14.3502 45.891C14.5392 46.7111 15.4077 50.1456 17.5561 54.2162C18.9976 56.9467 20.7256 59.4256 22.691 61.583C25.1461 64.2792 27.9822 66.479 31.1197 68.1221C31.174 68.1504 31.1956 68.2181 31.1665 68.2732C31.1464 68.3111 31.1077 68.3328 31.0675 68.3328L31.0698 68.3335Z" fill="#231F20"/>
<path d="M24.2888 50.4574C24.2359 50.4574 24.1883 50.4194 24.1786 50.3651C23.6837 47.5498 23.4947 44.8142 23.6168 42.2334C23.6197 42.1716 23.6703 42.124 23.7336 42.127C23.7954 42.1299 23.843 42.182 23.84 42.2438C23.7187 44.8083 23.9063 47.5275 24.3989 50.3264C24.4093 50.3874 24.3691 50.4447 24.3081 50.4559C24.3014 50.4574 24.2955 50.4574 24.2888 50.4574Z" fill="#231F20"/>
<path d="M26.726 59.2603C26.6806 59.2603 26.6382 59.2328 26.621 59.1881C25.504 56.198 24.6825 53.2294 24.1786 50.3651C24.1682 50.304 24.2084 50.2468 24.2694 50.2356C24.3312 50.2244 24.3878 50.2653 24.3989 50.3264C24.9005 53.1773 25.7184 56.1325 26.8302 59.11C26.8518 59.1681 26.8227 59.2321 26.7647 59.2537C26.752 59.2581 26.7387 59.2603 26.7253 59.2603H26.726Z" fill="#231F20"/>
<path d="M31.0698 68.3334C31.0297 68.3334 30.991 68.3118 30.9709 68.2739C30.9426 68.2196 30.9634 68.1518 31.0177 68.1228C34.1552 66.4796 36.9846 64.2813 39.4278 61.5896C41.3835 59.4344 43.0974 56.96 44.5217 54.2348C45.7898 51.8087 46.5891 49.629 47.0363 48.2277C47.398 47.0951 47.5938 46.2742 47.6712 45.9267L44.0246 47.066C43.98 47.0802 43.9301 47.0646 43.9018 47.0266C43.8735 46.9886 43.8721 46.9373 43.8981 46.8979L46.1657 43.5029L43.0974 43.0608C43.0364 43.0519 42.9939 42.9953 43.0029 42.9343C43.0118 42.8733 43.0683 42.8309 43.1294 42.8398L46.3725 43.3072C46.4105 43.3124 46.4432 43.3369 46.4589 43.3719C46.4745 43.4069 46.4708 43.4478 46.4499 43.4791L44.2598 46.7587L47.7865 45.6566C47.8237 45.6447 47.8646 45.6536 47.8944 45.6796C47.9234 45.7057 47.9368 45.7451 47.9294 45.7838C47.9219 45.8218 47.1636 49.6603 44.7227 54.3308C43.2894 57.0739 41.5643 59.5654 39.596 61.7354C37.1342 64.4487 34.2825 66.6642 31.1204 68.32C31.1041 68.3289 31.0862 68.3327 31.0684 68.3327L31.0698 68.3334Z" fill="#231F20"/>
<path d="M31.0698 68.3334C31.0475 68.3334 31.0244 68.3267 31.0051 68.3126C30.9552 68.2769 30.9433 68.2069 30.979 68.157C30.9917 68.1392 32.2732 66.3375 33.7362 63.2246C35.0862 60.352 36.8715 55.7448 37.7094 50.1038C37.7184 50.0428 37.7757 50.0004 37.8359 50.01C37.897 50.019 37.9386 50.0755 37.9297 50.1366C37.0873 55.8073 35.2923 60.4383 33.9349 63.3258C32.4637 66.4558 31.1725 68.2694 31.1599 68.288C31.1383 68.3185 31.104 68.3349 31.069 68.3349L31.0698 68.3334Z" fill="#231F20"/>
<path d="M37.8204 50.2311C37.8152 50.2311 37.8092 50.2311 37.804 50.2296C37.743 50.2207 37.7013 50.1641 37.7103 50.1031C38.098 47.4955 38.2565 44.8588 38.1813 42.2661C38.1798 42.2043 38.2282 42.153 38.29 42.1515C38.2907 42.1515 38.2922 42.1515 38.293 42.1515C38.3532 42.1515 38.4023 42.1991 38.4046 42.2602C38.4797 44.8656 38.3205 47.5156 37.9313 50.1366C37.9231 50.1917 37.8754 50.2319 37.8211 50.2319L37.8204 50.2311Z" fill="#231F20"/>
<path d="M29.8457 47.5297C29.8338 47.5297 29.8219 47.5275 29.81 47.5237C29.6641 47.4746 29.5309 47.392 29.4237 47.2863L28.431 46.3018C28.3871 46.2586 28.3871 46.1879 28.431 46.144C28.4742 46.1001 28.5448 46.1001 28.5887 46.144L29.5815 47.1286C29.6641 47.2112 29.7683 47.2744 29.8822 47.3131C29.941 47.3332 29.9722 47.3965 29.9521 47.4545C29.9365 47.5014 29.8933 47.5304 29.8464 47.5304L29.8457 47.5297Z" fill="#231F20"/>
<path d="M32.2374 47.5297C32.1905 47.5297 32.1474 47.5007 32.1317 47.4538C32.1117 47.3957 32.1436 47.3317 32.2017 47.3124C32.3156 47.2737 32.419 47.2104 32.5024 47.1278L33.4058 46.2318C33.4497 46.1887 33.5204 46.1887 33.5635 46.2318C33.6067 46.2757 33.6067 46.3464 33.5635 46.3896L32.6601 47.2856C32.553 47.392 32.4197 47.4739 32.2739 47.523C32.262 47.5267 32.25 47.5289 32.2381 47.5289L32.2374 47.5297Z" fill="#231F20"/>
<path d="M31.9518 47.5773H30.1315C30.0236 47.5773 29.9156 47.5595 29.81 47.5238C29.7519 47.5044 29.7199 47.4404 29.74 47.3824C29.7594 47.3243 29.8234 47.2923 29.8814 47.3124C29.964 47.3399 30.0481 47.3541 30.1315 47.3541H31.9518C32.0351 47.3541 32.1192 47.3399 32.2018 47.3124C32.2606 47.2923 32.3238 47.3243 32.3432 47.3824C32.3633 47.4404 32.3313 47.5044 32.2732 47.5238C32.1676 47.5595 32.0597 47.5773 31.9518 47.5773Z" fill="#231F20"/>
<path d="M34.6724 55.1174H34.6717C34.6099 55.1174 34.5608 55.0668 34.5608 55.005C34.595 50.8897 32.5575 48.0194 32.1489 47.4858C32.1117 47.4367 32.1206 47.3667 32.1697 47.3295C32.2188 47.2915 32.2888 47.3012 32.326 47.3503C32.7427 47.8943 34.819 50.819 34.784 55.0073C34.784 55.0683 34.7334 55.1181 34.6724 55.1181V55.1174Z" fill="#231F20"/>
<path d="M34.6724 55.0207H34.5608V55.0043C34.5615 54.9433 34.6114 54.8942 34.6724 54.8942H34.6739C34.7357 54.8949 34.7848 54.9455 34.784 55.0073V55.0147L34.6724 55.0199V55.0207Z" fill="#231F20"/>
<path d="M27.4114 55.1658C27.3504 55.1658 27.3005 55.1167 27.2998 55.0557C27.2484 50.8414 29.3381 47.8974 29.7578 47.3497C29.795 47.3005 29.865 47.2916 29.9141 47.3288C29.9632 47.366 29.9721 47.4367 29.9349 47.4851C29.5234 48.0224 27.4732 50.9121 27.523 55.0527C27.523 55.1145 27.4746 55.1651 27.4129 55.1658H27.4114Z" fill="#231F20"/>
<path d="M34.6724 55.1174C34.6434 55.1174 34.6144 55.1063 34.5928 55.0839C34.5497 55.04 34.5504 54.9693 34.5943 54.9262C36.8157 52.7464 37.5822 50.5124 37.7132 50.0867C37.7311 50.028 37.7943 49.9952 37.8531 50.013C37.9119 50.0309 37.9454 50.0934 37.9268 50.153C37.7928 50.5876 37.0107 52.8685 34.7506 55.0862C34.729 55.1078 34.7007 55.1182 34.6724 55.1182V55.1174Z" fill="#231F20"/>
<path d="M26.726 59.2603C26.6747 59.2603 26.6293 59.2253 26.6174 59.1732C26.604 59.113 26.6412 59.0534 26.7014 59.04C28.2419 58.6903 29.6767 58.179 30.9656 57.5196C31.0207 57.4914 31.0877 57.5129 31.116 57.568C31.1442 57.6231 31.1219 57.69 31.0676 57.7183C29.7615 58.3859 28.3089 58.9046 26.7506 59.258C26.7424 59.2603 26.7342 59.261 26.726 59.261V59.2603Z" fill="#231F20"/>
<path d="M31.0163 57.7303C30.9761 57.7303 30.9367 57.708 30.9166 57.6693C30.8883 57.6142 30.9106 57.5472 30.965 57.519C32.3313 56.8202 33.5518 55.948 34.5936 54.9255C34.6375 54.8823 34.7082 54.883 34.7514 54.927C34.7945 54.9709 34.7938 55.0416 34.7499 55.0847C33.6924 56.1229 32.4526 57.0084 31.0662 57.7177C31.0498 57.7258 31.0327 57.7296 31.0156 57.7296L31.0163 57.7303Z" fill="#231F20"/>
<path d="M31.0163 57.7303C30.9992 57.7303 30.9821 57.7265 30.9657 57.7183C29.6024 57.021 28.3804 56.1518 27.3334 55.1345C27.2894 55.0914 27.2879 55.0207 27.3311 54.9768C27.3743 54.9329 27.445 54.9314 27.4889 54.9746C28.5203 55.9762 29.7244 56.8328 31.0669 57.5196C31.122 57.5479 31.1436 57.6149 31.1153 57.67C31.0952 57.7087 31.0565 57.731 31.0156 57.731L31.0163 57.7303Z" fill="#231F20"/>
<path d="M27.4114 55.1658C27.3832 55.1658 27.3556 55.1554 27.334 55.1346C25.3076 53.1655 24.4563 51.1554 24.1839 50.3829C24.1638 50.3249 24.1943 50.2609 24.2524 50.2408C24.3104 50.2207 24.3744 50.2512 24.3945 50.3093C24.6609 51.0676 25.4967 53.0389 27.4888 54.9753C27.5327 55.0185 27.5342 55.0892 27.4911 55.1331C27.4695 55.1554 27.4397 55.1673 27.4107 55.1673L27.4114 55.1658Z" fill="#231F20"/>
<path d="M29.7556 61.5576C29.3039 61.5576 28.9363 61.19 28.9363 60.7383C28.9363 60.2866 29.3039 59.9189 29.7556 59.9189C30.2073 59.9189 30.575 60.2866 30.575 60.7383C30.575 61.19 30.2073 61.5576 29.7556 61.5576ZM29.7556 60.1422C29.4267 60.1422 29.1595 60.4093 29.1595 60.7383C29.1595 61.0672 29.4267 61.3344 29.7556 61.3344C30.0845 61.3344 30.3517 61.0672 30.3517 60.7383C30.3517 60.4093 30.0845 60.1422 29.7556 60.1422Z" fill="#231F20"/>
<path d="M22.4485 26.7707C22.4142 26.7707 22.38 26.755 22.3577 26.7245C22.1575 26.4477 21.9543 26.1723 21.7512 25.8977C20.079 23.6317 18.3495 21.289 18.377 18.22C18.4001 15.6019 20.1928 13.8412 23.7054 12.9854C23.6994 12.7256 23.7151 11.974 24.0388 11.0996C24.402 10.1188 25.2392 8.79931 27.1621 8.08787C29.8576 7.09066 31.9681 7.62647 33.2637 8.25159C34.5073 8.8514 35.2418 9.62685 35.4159 9.82332C35.6965 9.79801 36.9073 9.71616 38.3182 10.0369C40.3915 10.508 41.8941 11.6399 42.668 13.3113C43.0461 13.3366 44.8209 13.5167 45.7884 14.6717C46.3011 15.2834 46.4954 16.0641 46.3659 16.9936C46.2349 17.9342 45.8018 18.8108 45.1134 19.529C44.4317 20.2397 43.5253 21.2867 43.0766 22.2423C43.0505 22.2981 42.9835 22.3219 42.9277 22.2959C42.8719 22.2698 42.8481 22.2029 42.8742 22.147C43.3356 21.1647 44.2583 20.0968 44.9512 19.3742C45.6068 18.6903 46.0191 17.8568 46.1434 16.963C46.2632 16.099 46.086 15.3772 45.6165 14.8161C44.617 13.6224 42.6092 13.5323 42.5891 13.5309C42.5467 13.5294 42.5088 13.5033 42.4916 13.4654C41.746 11.8051 40.3268 10.7253 38.2736 10.2572C36.7324 9.90593 35.3936 10.051 35.3809 10.0525C35.343 10.057 35.3065 10.0421 35.2827 10.0131C35.2753 10.0042 34.5207 9.10593 33.1573 8.4503C31.9026 7.84676 29.8569 7.3303 27.2388 8.29923C25.7616 8.84546 24.7562 9.81216 24.2501 11.1703C23.8714 12.1876 23.9301 13.0568 23.9309 13.0657C23.9346 13.1201 23.8989 13.1699 23.8453 13.1826C20.3863 14.0034 18.6211 15.6994 18.5988 18.2237C18.572 21.2183 20.2033 23.4278 21.9298 25.7675C22.1329 26.0429 22.3361 26.3182 22.537 26.5958C22.5735 26.6456 22.5623 26.7156 22.5125 26.7513C22.4924 26.7655 22.4701 26.7729 22.447 26.7729L22.4485 26.7707Z" fill="#231F20"/>
<path d="M25.0829 32.6802C25.0323 32.6802 24.9869 32.646 24.9742 32.5947C24.6036 31.0572 24.073 29.638 23.3966 28.3766C23.3676 28.3223 23.3877 28.2546 23.442 28.2256C23.4963 28.1965 23.564 28.2166 23.593 28.2709C24.2784 29.5487 24.8165 30.9857 25.1908 32.5418C25.205 32.6021 25.1685 32.6624 25.1082 32.6765C25.0993 32.6788 25.0904 32.6795 25.0822 32.6795L25.0829 32.6802Z" fill="#231F20"/>
<path d="M22.4485 26.7706C22.3979 26.7706 22.3525 26.7364 22.3399 26.6851C22.2774 26.4276 22.2461 26.1619 22.2461 25.8947C22.2461 24.1645 23.5603 22.7572 25.1752 22.7572H25.1916C25.9328 22.7617 26.6174 23.1814 26.9769 23.8542C27.2217 24.3133 27.4457 24.745 27.6452 25.1409C27.8833 24.1705 28.8031 21.257 31.3653 20.6512L30.3161 17.7385C30.2997 17.6923 30.3146 17.641 30.354 17.6112C30.3934 17.5822 30.447 17.5814 30.4872 17.6112C30.4939 17.6157 31.1771 18.1016 32.661 18.3412C34.0333 18.563 36.3901 18.6129 39.8223 17.5941C39.8223 17.5941 39.8654 17.5799 39.9384 17.5628C40.9408 17.3277 41.9626 17.888 42.3146 18.8659C42.5192 19.4352 42.6896 20.0447 42.8213 20.6773C42.9203 21.1528 43.0096 21.6573 43.0885 22.176C43.0975 22.2371 43.0558 22.2936 42.9947 22.3033C42.933 22.3122 42.8772 22.2705 42.8675 22.2095C42.7901 21.6945 42.7008 21.1945 42.6025 20.7226C42.4731 20.0998 42.3056 19.5007 42.1047 18.9411C41.7906 18.0696 40.882 17.5703 39.989 17.7794C39.9257 17.7943 39.8892 17.8062 39.8892 17.8062C37.9618 18.3785 35.1369 18.9723 32.6044 18.5578C31.6057 18.3941 30.9642 18.1254 30.6316 17.9535L31.6191 20.6951C31.6303 20.7256 31.6273 20.7591 31.6117 20.7874C31.596 20.8157 31.5685 20.8358 31.5365 20.8417C28.5114 21.4542 27.8044 25.4519 27.7977 25.4921C27.7895 25.5398 27.7516 25.577 27.704 25.5844C27.6563 25.5911 27.6087 25.5665 27.5879 25.5234C27.3564 25.0545 27.0855 24.5277 26.7812 23.9584C26.4604 23.3578 25.8509 22.9827 25.1908 22.979H25.1767C23.6846 22.979 22.4708 24.2865 22.4708 25.8932C22.4708 26.1425 22.5006 26.3911 22.5586 26.6307C22.5735 26.691 22.5363 26.7513 22.4768 26.7654C22.4679 26.7677 22.4589 26.7684 22.4507 26.7684L22.4485 26.7706Z" fill="#231F20"/>
<path d="M36.9981 29.0025C35.7716 29.0025 34.7834 28.0782 34.4217 27.689C34.38 27.6436 34.3823 27.5729 34.4277 27.5312C34.4731 27.4895 34.5437 27.4918 34.5854 27.5372C36.4972 29.5971 38.1032 28.5917 38.7052 28.0641C38.7514 28.0231 38.8221 28.0283 38.863 28.0745C38.9039 28.1206 38.8987 28.1913 38.8526 28.2322C38.2089 28.7971 37.577 29.0025 36.9981 29.0025Z" fill="#231F20"/>
<path d="M34.5035 27.7247C34.4611 27.7247 34.4201 27.7001 34.4015 27.6584C34.3762 27.6019 34.4015 27.5364 34.4581 27.5111C34.624 27.4374 34.7647 27.3265 34.8763 27.1814C34.9143 27.1323 34.9842 27.1234 35.0326 27.1613C35.0817 27.1985 35.0907 27.2692 35.0527 27.3176C34.918 27.4925 34.7483 27.6257 34.5489 27.715C34.534 27.7217 34.5184 27.7247 34.5035 27.7247Z" fill="#231F20"/>
<path d="M33.9491 27.8401C33.8672 27.8401 33.8159 27.8334 33.8107 27.8326C33.7496 27.8237 33.7072 27.7672 33.7162 27.7061C33.7251 27.6451 33.7816 27.6027 33.8419 27.6116C33.8419 27.6116 34.1455 27.6511 34.4581 27.5119C34.5139 27.4866 34.5801 27.5119 34.6054 27.5684C34.6307 27.625 34.6054 27.6905 34.5489 27.7158C34.3137 27.8207 34.0875 27.8408 33.9491 27.8408V27.8401Z" fill="#231F20"/>
</g>
</g>
<defs>
<clipPath id="clip0_25_23732">
<rect x="0.380371" width="64" height="64" rx="32" fill="white"/>
</clipPath>
<clipPath id="clip1_25_23732">
<rect width="64" height="64" fill="white" transform="translate(0.380371)"/>
</clipPath>
</defs>
</svg>
